<svg width="43" height="43" viewBox="0 0 43 43" fill="none" xmlns="http://www.w3.org/2000/svg">
<path d="M34.0417 5.375H8.95833C8.00797 5.375 7.09654 5.75253 6.42453 6.42453C5.75253 7.09654 5.375 8.00797 5.375 8.95833V34.0417C5.375 34.992 5.75253 35.9035 6.42453 36.5755C7.09654 37.2475 8.00797 37.625 8.95833 37.625H34.0417C34.992 37.625 35.9035 37.2475 36.5755 36.5755C37.2475 35.9035 37.625 34.992 37.625 34.0417V8.95833C37.625 8.00797 37.2475 7.09654 36.5755 6.42453C35.9035 5.75253 34.992 5.375 34.0417 5.375ZM34.0417 8.95833V34.0417H8.95833V8.95833H34.0417ZM17.9167 30.4583L10.75 23.2917L13.2762 20.7475L17.9167 25.3879L29.7237 13.5808L32.25 16.125" fill="#52838B"/>
</svg>
