<svg width="873" height="733" viewBox="0 0 873 733" fill="none" xmlns="http://www.w3.org/2000/svg">
<g filter="url(#filter0_d_102_111)">
<path d="M21.9583 681.095H27.9326V688.949H21.9583V681.095ZM21.9583 709.666H27.9326V722.53H21.9583V709.666ZM16.803 690.153H22.7774C21.9101 698.488 19.5011 703.788 6.82978 706.534C6.34798 705.089 4.95076 702.776 3.74626 701.62C14.6349 699.741 16.1285 696.224 16.803 690.153ZM27.3545 690.057H33.0879V698.344C33.0879 699.644 33.377 699.789 34.8224 699.789C35.4969 699.789 38.2913 699.789 39.1586 699.789C40.3631 699.789 40.604 699.307 40.7967 696.32C41.9048 697.139 44.2175 697.958 45.7592 698.295C45.1329 703.354 43.6393 704.703 39.7367 704.703C38.5804 704.703 35.0633 704.703 34.0033 704.703C28.559 704.703 27.3545 703.21 27.3545 698.344V690.057ZM4.42078 685.431H45.8556V695.453H39.8813V690.635H10.106V696.32H4.42078V685.431ZM8.99788 707.401H42.1939V712.557H8.99788V707.401ZM3.8908 719.832H46.241V725.035H3.8908V719.832ZM68.5484 710.485H81.7497V714.628H68.5484V710.485ZM68.2111 703.354H84.4478V721.855H68.2111V717.616H79.0516V707.594H68.2111V703.354ZM65.8503 703.354H71.0537V724.313H65.8503V703.354ZM57.756 689.623H69.8492V693.526H57.756V689.623ZM80.1116 689.623H92.3011V693.526H80.1116V689.623ZM89.9403 682.926H95.7701V719.495C95.7701 722.626 95.1437 724.313 93.2165 725.276C91.2893 726.24 88.4949 726.336 84.3514 726.336C84.1105 724.698 83.2433 722 82.4724 720.458C84.9777 720.603 87.9167 720.555 88.784 720.555C89.6512 720.555 89.9403 720.266 89.9403 719.446V682.926ZM58.2378 682.926H73.4627V700.415H58.2378V696.272H68.0666V687.118H58.2378V682.926ZM93.0238 682.926V687.118H82.2315V696.416H93.0238V700.56H76.739V682.926H93.0238ZM54.9134 682.926H60.6468V726.336H54.9134V682.926ZM116.68 684.901H147.323V693.815H141.83V689.575H121.932V693.815H116.68V684.901ZM128.677 681.095H134.555V688.708H128.677V681.095ZM128.822 695.453H134.362V714.339H128.822V695.453ZM133.495 719.398L137.976 716.459C141.204 718.338 145.733 721.181 148.094 723.108L143.372 726.384C141.3 724.457 136.819 721.422 133.495 719.398ZM124.678 716.989L130.219 719.061C127.28 721.952 122.606 724.891 118.752 726.625C117.788 725.517 115.62 723.397 114.368 722.434C118.174 721.229 122.317 719.109 124.678 716.989ZM123.811 710.244V712.798H139.807V710.244H123.811ZM123.811 703.692V706.245H139.807V703.692H123.811ZM118.704 699.452H145.155V717.037H118.704V699.452ZM120.486 692.514H143.372V697.091H120.486V692.514ZM105.021 685.576L108.201 681.24C111.091 682.348 114.849 684.323 116.728 685.865L113.356 690.683C111.621 688.997 107.911 686.829 105.021 685.576ZM102.515 698.633L105.695 694.248C108.538 695.26 112.296 697.139 114.175 698.633L110.802 703.451C109.068 701.909 105.454 699.837 102.515 698.633ZM103.768 722.337C106.032 718.627 109.212 712.509 111.669 706.823L116.247 710.244C114.078 715.448 111.429 721.085 108.923 725.806L103.768 722.337ZM158.982 717.857H191.937V723.542H158.982V717.857ZM172.087 681.577H178.11V721.325H172.087V681.577ZM156.14 705.812H162.018V726.336H156.14V705.812ZM188.854 705.812H194.876V726.288H188.854V705.812ZM158.067 685.624H163.848V697.621H186.83V685.624H192.949V703.21H158.067V685.624ZM204.753 688.997C206.632 688.949 208.559 688.852 209.475 688.756C213.474 688.37 221.424 687.696 230.24 686.925C235.251 686.54 240.503 686.202 243.924 686.058L243.972 692.273C241.37 692.273 237.227 692.321 234.625 692.899C228.843 694.441 224.459 700.704 224.459 706.438C224.459 714.339 231.879 717.23 240.021 717.616L237.757 724.216C227.687 723.59 218.147 718.146 218.147 707.691C218.147 700.801 222.05 695.308 225.278 692.851C220.797 693.333 210.92 694.393 205.38 695.597L204.753 688.997ZM237.082 696.995C238.238 698.681 239.973 701.62 240.888 703.547L237.275 705.137C236.022 702.535 235.01 700.608 233.517 698.488L237.082 696.995ZM242.43 694.778C243.683 696.465 245.514 699.307 246.525 701.186L242.912 702.921C241.611 700.319 240.503 698.488 238.961 696.368L242.43 694.778ZM261.172 680.999H277.12V686.202H266.857V711.786H261.172V680.999ZM301.354 704.27H307.328V726.288H301.354V704.27ZM292.971 696.368V699.885H315.712V696.368H292.971ZM292.971 688.178V691.647H315.712V688.178H292.971ZM287.286 683.119H321.686V704.992H287.286V683.119ZM282.516 710.437H326.745V715.977H282.516V710.437ZM365.915 687.31C364.374 688.419 362.784 689.671 361.675 690.587C358.544 693.092 352.184 698.006 348.956 700.801C346.402 702.969 346.451 703.547 349.052 705.812C352.666 708.847 361.82 716.026 366.734 720.795L361.146 725.999C359.796 724.457 358.351 722.964 356.906 721.518C354.015 718.483 346.932 712.412 342.5 708.702C337.73 704.607 338.115 702.005 342.933 698.006C346.692 694.923 353.34 689.575 356.568 686.395C357.966 685.046 359.507 683.456 360.278 682.3L365.915 687.31ZM383.549 685.094H425.851V690.008H383.549V685.094ZM401.424 680.999H407.398V687.551H401.424V680.999ZM385.476 704.559H420.696V709.329H391.113V726.384H385.476V704.559ZM418.528 704.559H424.358V720.266C424.358 722.915 423.828 724.457 421.949 725.324C420.118 726.192 417.564 726.288 414.095 726.288C413.903 724.65 413.084 722.337 412.313 720.844C414.481 720.94 416.938 720.94 417.612 720.892C418.335 720.892 418.528 720.699 418.528 720.121V704.559ZM395.45 711.545H400.46V724.554H395.45V711.545ZM397.955 711.545H413.951V722.337H397.955V718.483H408.844V715.399H397.955V711.545ZM396.943 695.742V698.633H412.12V695.742H396.943ZM391.451 691.887H417.95V702.535H391.451V691.887ZM466.13 687.31C464.588 688.419 462.998 689.671 461.89 690.587C458.758 693.092 452.398 698.006 449.17 700.801C446.617 702.969 446.665 703.547 449.267 705.812C452.88 708.847 462.034 716.026 466.949 720.795L461.36 725.999C460.011 724.457 458.565 722.964 457.12 721.518C454.229 718.483 447.147 712.412 442.714 708.702C437.944 704.607 438.33 702.005 443.148 698.006C446.906 694.923 453.555 689.575 456.783 686.395C458.18 685.046 459.722 683.456 460.493 682.3L466.13 687.31ZM483.619 684.95H526.258V690.201H483.619V684.95ZM488.244 693.333H521.874V698.392H488.244V693.333ZM484.294 700.801H525.68V711.111H519.85V705.956H489.834V711.111H484.294V700.801ZM501.687 681.143H507.709V696.127H501.687V681.143ZM507.468 707.498H513.298V718.82C513.298 720.362 513.587 720.555 515.273 720.555C516.092 720.555 519.224 720.555 520.14 720.555C521.729 720.555 522.067 719.784 522.211 714.821C523.416 715.737 525.873 716.652 527.415 716.989C526.788 723.975 525.295 725.758 520.718 725.758C519.513 725.758 515.611 725.758 514.502 725.758C508.865 725.758 507.468 724.12 507.468 718.916V707.498ZM495.568 707.45H501.59C500.868 717.182 498.748 723.349 485.45 726.529C484.92 724.987 483.475 722.723 482.27 721.518C493.833 719.254 494.99 714.966 495.568 707.45ZM570.054 683.986H575.739V712.364C575.739 714.966 575.306 716.7 573.667 717.712C572.078 718.724 569.958 718.868 567.019 718.868C566.826 717.182 566.007 714.484 565.188 712.894C566.922 712.99 568.753 712.99 569.331 712.99C569.861 712.99 570.054 712.798 570.054 712.219V683.986ZM558.154 683.986H572.8V689.382H563.742V726.336H558.154V683.986ZM533.967 687.937H555.166V693.14H533.967V687.937ZM532.425 699.259H556.66V704.607H532.425V699.259ZM541.917 681.095H547.506V702.15H541.917V681.095ZM532.377 716.267C537.388 715.833 544.952 715.014 552.131 714.195L552.324 719.35C545.627 720.266 538.544 721.181 533.196 721.855L532.377 716.267ZM546.542 709.425L551.216 707.546C553.769 711.786 556.564 717.423 557.527 721.133L552.468 723.301C551.553 719.639 548.999 713.858 546.542 709.425ZM539.46 702.583L545.579 704.173C543.796 709.232 541.676 715.014 539.893 718.676L535.123 717.134C536.762 713.183 538.592 707.112 539.46 702.583ZM598.384 726.433H582.436V721.229H592.699V695.646H598.384V726.433ZM633.411 683.36C633.025 685.142 632.399 687.985 631.05 691.454C630.038 693.815 628.641 696.561 627.292 698.488C628.593 697.91 631.146 697.573 632.784 697.573C636.783 697.573 639.819 699.934 639.819 704.414C639.819 707.016 639.963 712.268 640.011 715.303H634.23C634.422 713.039 634.519 708.943 634.471 706.341C634.471 703.258 632.543 702.246 630.52 702.246C627.87 702.246 624.835 703.836 623.004 705.571C621.558 707.016 620.209 708.75 618.571 710.87L613.416 707.016C619.583 701.331 623.293 696.127 625.316 690.828C626.28 688.226 626.906 685.287 627.051 682.83L633.411 683.36ZM615.247 687.84C617.704 688.178 621.269 688.37 623.726 688.37C630.086 688.37 638.807 688.033 645.793 686.78L645.745 692.369C638.951 693.333 629.267 693.767 623.389 693.767C621.414 693.767 617.897 693.67 615.247 693.429V687.84ZM653.405 701.523C651.912 701.957 649.31 702.921 647.672 703.547C644.54 704.752 640.204 706.486 635.675 708.799C631.291 711.063 628.93 713.135 628.93 715.785C628.93 718.435 631.243 719.157 635.916 719.157C640.011 719.157 645.407 718.627 649.647 717.76L649.455 723.975C646.227 724.409 640.349 724.843 635.771 724.843C628.255 724.843 622.618 722.964 622.618 716.748C622.618 710.051 629.508 706.101 635.29 703.21C639.722 700.897 642.758 699.741 645.648 698.392C647.527 697.573 649.214 696.802 651.045 695.886L653.405 701.523ZM681.157 681.143H687.083V688.852H681.157V681.143ZM663.523 685.335H704.813V695.694H698.839V690.394H669.257V695.694H663.523V685.335ZM667.811 694.2H700.911V698.874H667.811V694.2ZM663.138 709.473H705.488V714.484H663.138V709.473ZM668.582 701.764H699.947V706.438H668.582V701.764ZM687.035 710.485C689.878 716.845 696.141 720.362 706.162 721.422C704.958 722.626 703.464 724.939 702.742 726.481C691.708 724.698 685.541 720.121 681.832 711.545L687.035 710.485ZM681.013 691.454H686.842V704.848C686.842 713.328 683.325 721.615 665.788 726.336C665.161 725.084 663.475 722.867 662.222 721.663C678.893 717.857 681.013 711.256 681.013 704.8V691.454ZM712.185 683.601H729.144V688.949H712.185V683.601ZM712.619 697.38H728.614V702.68H712.619V697.38ZM711.029 714.098C715.702 713.039 722.688 711.159 729.337 709.329L730.108 714.388C724.037 716.218 717.485 718.097 712.474 719.591L711.029 714.098ZM736.371 694.971V697.958H749.043V694.971H736.371ZM736.371 702.391V705.33H749.043V702.391H736.371ZM736.371 687.648V690.587H749.043V687.648H736.371ZM731.023 682.926H754.68V710.1H731.023V682.926ZM743.165 707.98H748.705V719.543C748.705 720.988 748.85 721.133 749.621 721.133C749.958 721.133 751.211 721.133 751.644 721.133C752.463 721.133 752.656 720.362 752.753 715.544C753.861 716.411 756.173 717.327 757.619 717.664C757.137 724.264 755.788 726.095 752.271 726.095C751.403 726.095 749.428 726.095 748.609 726.095C744.128 726.095 743.165 724.457 743.165 719.591V707.98ZM734.637 709.377H740.274C739.551 717.616 737.479 723.445 726.784 726.673C726.205 725.228 724.76 723.012 723.604 721.904C732.758 719.591 734.011 715.496 734.637 709.377ZM718.015 685.72H723.604V714.05L718.015 714.869V685.72Z" fill="white"/>
</g>
<rect x="2" y="567" width="769" height="70" rx="2.77482" fill="white"/>
<path d="M57.6101 588.903H86.1828V592.65H57.6101V588.903ZM63.1161 604.053H81.6867V607.669H63.1161V604.053ZM63.4419 595.257H84.0325V609.657H80.0577V598.873H63.4419V595.257ZM60.6401 595.257H64.6148V602.522C64.6148 607.279 63.8003 614.023 59.2717 618.095C58.6853 617.313 57.0563 615.847 56.2092 615.326C60.2491 611.709 60.6401 606.464 60.6401 602.457V595.257ZM98.9541 593.693H120.261V596.69H98.9541V593.693ZM100.844 602.457H118.079V605.259H100.844V602.457ZM99.4103 606.757H119.545V609.852H99.4103V606.757ZM107.197 587.6H111.009V612.491H107.197V587.6ZM101.202 589.425H117.818V601.023H101.039V598.058H113.974V592.389H101.202V589.425ZM89.8317 589.131H96.7061V592.552H89.8317V589.131ZM95.3703 589.131H95.859L96.4455 589.001L99.0845 589.718C97.6184 593.562 95.3378 598.645 93.4481 602.717L89.8969 601.805C91.8843 597.798 94.23 592.422 95.3703 589.555V589.131ZM93.1549 598.352H97.9116V601.773H93.0246L93.1549 598.352ZM96.3477 598.352H97.0971L97.7487 598.286L100.029 598.775C99.2148 608.614 96.7061 614.87 92.4707 618.063C91.8843 617.313 90.3856 615.912 89.5385 615.424C93.5784 612.622 95.7287 607.344 96.3477 599.068V598.352ZM93.3504 603.63C95.9894 612.068 101.952 613.404 109.64 613.436C111.628 613.436 118.274 613.436 120.652 613.338C120.066 614.218 119.382 616.01 119.154 617.15H109.543C100.094 617.15 93.6762 615.228 90.2879 604.705L93.3504 603.63ZM138.311 598.482C140.591 598.482 142.448 600.339 142.448 602.62C142.448 604.933 140.591 606.79 138.311 606.79C135.998 606.79 134.141 604.933 134.141 602.62C134.141 600.339 135.998 598.482 138.311 598.482ZM186.269 594.475C185.812 594.996 185.421 595.452 185.161 595.843C182.62 600.046 177.798 605.91 172.748 609.624L169.49 606.627C173.79 603.63 177.439 599.199 179.134 596.201C176.266 596.201 164.407 596.201 161.931 596.201C160.596 596.201 158.836 596.364 158.152 596.462V591.868C159.032 592.031 160.791 592.194 161.931 592.194C163.984 592.194 176.495 592.194 179.981 592.194C181.251 592.194 182.326 592.064 183.043 591.836L186.269 594.475ZM169.099 610.113C167.177 608.191 163.854 605.226 161.931 603.858L165.352 601.056C167.112 602.392 170.37 605.031 172.846 607.409C174.996 609.494 177.57 612.198 179.134 614.088L175.289 617.15C173.953 615.326 171.217 612.263 169.099 610.113ZM196.336 590.239C198.584 591.77 202.819 595.159 204.741 597.146L201.418 600.534C199.724 598.71 195.619 595.159 193.241 593.53L196.336 590.239ZM192.231 611.937C197.346 611.221 201.549 609.559 204.709 607.702C210.28 604.379 214.515 599.427 216.601 595.028L219.109 599.59C216.666 604.021 212.333 608.517 207.087 611.677C203.764 613.664 199.561 615.456 195 616.238L192.231 611.937ZM231.75 589.229C233.901 590.402 237.484 592.683 239.178 593.888L236.768 597.472C234.943 596.201 231.555 594.018 229.404 592.813L231.75 589.229ZM225.723 612.361C229.372 611.742 233.249 610.634 236.8 608.679C242.339 605.584 246.9 601.121 249.474 596.462L251.982 600.893C248.985 605.421 244.359 609.527 239.048 612.622C235.725 614.479 231.033 616.108 228.166 616.629L225.723 612.361ZM226.733 596.657C228.916 597.83 232.5 600.046 234.194 601.251L231.783 604.9C229.958 603.597 226.57 601.414 224.387 600.241L226.733 596.657ZM261.854 596.625C262.701 596.69 264.689 596.755 265.894 596.755C268.566 596.755 275.538 596.755 278.242 596.755C278.991 596.755 280.197 596.723 280.718 596.69C280.685 597.146 280.685 598.221 280.685 598.905C280.685 600.209 280.685 612.654 280.685 615.228C280.685 615.749 280.718 616.89 280.718 617.444H276.645C276.678 616.922 276.678 615.684 276.678 615.033C276.678 611.709 276.678 601.512 276.678 600.437C275.407 600.437 268.533 600.437 265.894 600.437C264.689 600.437 262.669 600.502 261.854 600.534V596.625ZM262.701 604.249C263.548 604.314 265.047 604.346 266.285 604.346C267.881 604.346 277.688 604.346 278.568 604.346V608.06C277.655 608.06 267.881 608.06 266.285 608.06C265.047 608.06 263.483 608.06 262.701 608.126V604.249ZM261.528 612.231C262.05 612.296 263.157 612.361 264.33 612.361C266.35 612.361 277.199 612.361 278.6 612.361V616.173C276.808 616.173 266.35 616.173 264.33 616.173C263.385 616.173 262.05 616.238 261.528 616.238V612.231ZM296.031 590.239C298.279 591.77 302.514 595.159 304.436 597.146L301.113 600.534C299.419 598.71 295.314 595.159 292.935 593.53L296.031 590.239ZM291.926 611.937C297.041 611.221 301.243 609.559 304.404 607.702C309.975 604.379 314.21 599.427 316.295 595.028L318.804 599.59C316.361 604.021 312.027 608.517 306.782 611.677C303.459 613.664 299.256 615.456 294.695 616.238L291.926 611.937ZM337.244 588.871C336.984 590.076 336.56 591.999 335.648 594.344C334.964 595.941 334.019 597.798 333.107 599.101C333.986 598.71 335.713 598.482 336.821 598.482C339.525 598.482 341.577 600.078 341.577 603.108C341.577 604.868 341.675 608.419 341.708 610.471H337.798C337.928 608.94 337.994 606.171 337.961 604.411C337.961 602.326 336.658 601.642 335.289 601.642C333.498 601.642 331.445 602.717 330.207 603.89C329.23 604.868 328.317 606.04 327.21 607.474L323.724 604.868C327.894 601.023 330.402 597.505 331.771 593.921C332.422 592.161 332.846 590.174 332.944 588.512L337.244 588.871ZM324.962 591.901C326.623 592.129 329.034 592.259 330.696 592.259C334.996 592.259 340.893 592.031 345.617 591.184L345.585 594.963C340.991 595.615 334.442 595.908 330.468 595.908C329.132 595.908 326.754 595.843 324.962 595.68V591.901ZM350.765 601.153C349.755 601.447 347.996 602.098 346.888 602.522C344.77 603.336 341.838 604.509 338.776 606.073C335.811 607.604 334.214 609.005 334.214 610.797C334.214 612.589 335.778 613.078 338.938 613.078C341.708 613.078 345.357 612.719 348.224 612.133L348.093 616.336C345.911 616.629 341.936 616.922 338.841 616.922C333.758 616.922 329.946 615.652 329.946 611.449C329.946 606.92 334.605 604.249 338.515 602.294C341.512 600.73 343.565 599.948 345.52 599.036C346.79 598.482 347.931 597.961 349.169 597.342L350.765 601.153ZM371.127 589.034H385.332V592.552H371.127V589.034ZM369.987 589.034H373.571V601.349C373.571 606.497 373.147 613.632 369.987 618.063C369.336 617.444 367.739 616.401 366.892 616.043C369.792 611.97 369.987 606.008 369.987 601.349V589.034ZM381.521 597.179H382.205L382.856 597.081L385.137 597.602C383.964 608.256 380.185 614.511 373.766 617.867C373.278 616.89 372.3 615.391 371.518 614.674C377.09 612.231 380.576 606.236 381.521 597.798V597.179ZM375.884 599.557C377.448 606.497 380.836 612.263 386.603 614.902C385.756 615.586 384.616 617.053 384.062 618.03C377.904 614.707 374.581 608.419 372.691 600.241L375.884 599.557ZM372.17 597.179H382.465V600.567H372.17V597.179ZM358.78 609.885L362.363 610.732C361.484 613.501 359.92 616.303 358.291 618.063C357.607 617.476 356.108 616.434 355.228 615.977C356.825 614.479 358.128 612.166 358.78 609.885ZM362.754 611.09L365.784 609.787C366.794 611.123 367.869 612.882 368.391 614.088L365.23 615.619C364.774 614.414 363.699 612.491 362.754 611.09ZM360.669 597.602V600.6H364.155V597.602H360.669ZM360.669 603.467V606.529H364.155V603.467H360.669ZM360.669 591.705V594.703H364.155V591.705H360.669ZM357.216 588.61H367.772V609.624H357.216V588.61ZM389.731 589.946H418.564V593.497H389.731V589.946ZM392.858 595.615H415.599V599.036H392.858V595.615ZM390.187 600.665H418.173V607.637H414.231V604.151H393.933V607.637H390.187V600.665ZM401.948 587.372H406.021V597.505H401.948V587.372ZM405.858 605.193H409.8V612.85C409.8 613.892 409.995 614.023 411.136 614.023C411.69 614.023 413.807 614.023 414.426 614.023C415.501 614.023 415.729 613.501 415.827 610.146C416.642 610.765 418.303 611.384 419.346 611.612C418.922 616.336 417.912 617.541 414.817 617.541C414.003 617.541 411.364 617.541 410.614 617.541C406.803 617.541 405.858 616.434 405.858 612.915V605.193ZM397.81 605.161H401.883C401.394 611.742 399.961 615.912 390.969 618.063C390.61 617.02 389.633 615.489 388.818 614.674C396.638 613.143 397.42 610.243 397.81 605.161ZM442.38 588.741C442.282 589.294 442.184 591.021 442.152 591.542C442.054 593.693 442.119 600.339 442.152 602.945L438.079 601.577C438.079 599.557 438.079 593.302 437.949 591.575C437.851 590.272 437.721 589.164 437.656 588.741H442.38ZM423.94 592.813C428.794 592.813 437.395 592.552 441.468 592.552C444.791 592.552 449.743 592.52 451.567 592.552L451.502 596.397C449.482 596.299 446.159 596.201 441.37 596.201C435.44 596.201 428.957 596.462 424.037 596.723L423.94 592.813ZM441.598 602.457C441.598 607.767 439.643 610.406 435.897 610.406C433.388 610.406 430.26 608.419 430.26 604.444C430.26 600.763 433.258 598.352 436.776 598.352C441.077 598.352 443.325 601.512 443.325 605.552C443.325 609.82 440.816 615.195 432.867 617.444L429.413 613.99C434.952 612.785 439.285 610.602 439.285 604.9C439.285 602.782 438.145 601.773 436.711 601.773C435.44 601.773 434.17 602.652 434.17 604.379C434.17 605.845 435.375 606.79 436.711 606.79C438.242 606.79 439.578 605.487 438.535 601.61L441.598 602.457ZM461.504 590.207C462.417 590.304 463.524 590.37 464.437 590.37C466.196 590.37 473.135 590.207 474.993 590.044C476.361 589.946 477.11 589.816 477.501 589.685L479.586 592.618C478.837 593.106 478.055 593.562 477.338 594.116C475.579 595.354 472.158 598.221 470.073 599.85C471.181 599.557 472.158 599.492 473.168 599.492C478.707 599.492 482.909 602.945 482.909 607.669C482.909 612.817 479 616.89 471.116 616.89C466.587 616.89 463.166 614.837 463.166 611.547C463.166 608.908 465.577 606.497 469.03 606.497C473.494 606.497 475.97 609.494 476.068 613.078L472.256 613.566C472.191 611.221 470.953 609.592 469.03 609.592C467.825 609.592 467.01 610.341 467.01 611.188C467.01 612.394 468.346 613.208 470.334 613.208C475.84 613.208 478.642 611.123 478.642 607.637C478.642 604.672 475.709 602.685 471.897 602.685C466.88 602.685 463.655 605.356 460.169 609.298L457.204 606.236C459.517 604.411 463.459 601.088 465.349 599.492C467.173 597.993 470.594 595.257 472.191 593.823C470.529 593.888 466.033 594.051 464.274 594.181C463.394 594.247 462.384 594.312 461.635 594.442L461.504 590.207ZM503.728 591.054C501.024 594.898 496.039 599.296 490.696 602.261C490.175 601.349 489.067 599.915 488.22 599.101C493.824 596.266 499.102 591.249 501.513 587.209H505.585C509.071 592.227 514.382 596.495 519.562 598.71C518.585 599.72 517.705 601.023 516.988 602.229C511.971 599.459 506.497 594.931 503.728 591.054ZM492.651 606.334H514.936V609.722H492.651V606.334ZM494.312 599.134H513.437V602.554H494.312V599.134ZM490.045 613.664H517.868V617.15H490.045V613.664ZM501.676 600.665H505.813V615.619H501.676V600.665ZM523.113 592.618C524.384 592.585 525.687 592.52 526.306 592.455C529.043 592.194 534.386 591.738 540.381 591.217C543.736 590.923 547.288 590.728 549.601 590.63L549.633 594.833C547.874 594.833 545.072 594.866 543.313 595.257C539.403 596.299 536.438 600.534 536.438 604.379C536.438 609.755 541.456 611.677 546.962 611.97L545.463 616.434C538.621 616.01 532.17 612.328 532.17 605.259C532.17 600.567 534.809 596.886 537.025 595.224C533.962 595.55 527.316 596.234 523.537 597.081L523.113 592.618ZM573.286 592.683C572.83 596.006 572.179 599.818 571.038 603.662C569.084 610.243 566.282 614.283 562.73 614.283C559.082 614.283 556.084 610.276 556.084 604.77C556.084 597.276 562.633 590.826 571.071 590.826C579.118 590.826 584.233 596.429 584.233 603.564C584.233 610.406 580.03 615.261 571.82 616.531L569.344 612.687C570.615 612.524 571.527 612.361 572.407 612.166C576.544 611.156 579.802 608.191 579.802 603.402C579.802 598.286 576.61 594.637 570.973 594.637C564.066 594.637 560.287 600.274 560.287 604.379C560.287 607.669 561.59 609.266 562.828 609.266C564.229 609.266 565.467 607.181 566.836 602.782C567.78 599.72 568.497 595.973 568.823 592.552L573.286 592.683ZM589.12 589.946H617.954V593.497H589.12V589.946ZM592.248 595.615H614.989V599.036H592.248V595.615ZM589.576 600.665H617.563V607.637H613.62V604.151H593.323V607.637H589.576V600.665ZM601.338 587.372H605.41V597.505H601.338V587.372ZM605.247 605.193H609.19V612.85C609.19 613.892 609.385 614.023 610.525 614.023C611.079 614.023 613.197 614.023 613.816 614.023C614.891 614.023 615.119 613.501 615.217 610.146C616.031 610.765 617.693 611.384 618.735 611.612C618.312 616.336 617.302 617.541 614.207 617.541C613.392 617.541 610.753 617.541 610.004 617.541C606.192 617.541 605.247 616.434 605.247 612.915V605.193ZM597.2 605.161H601.273C600.784 611.742 599.35 615.912 590.358 618.063C590 617.02 589.023 615.489 588.208 614.674C596.027 613.143 596.809 610.243 597.2 605.161ZM623.557 593.497H649.882V597.309H623.557V593.497ZM625.284 602.978H648.318V606.757H625.284V602.978ZM622.156 613.078H651.478V616.922H622.156V613.078ZM634.635 596.82H638.935V615.13H634.635V596.82ZM631.735 589.522L634.96 587.274C637.046 588.61 639.847 590.728 641.248 592.259L637.795 594.768C636.557 593.269 633.885 591.054 631.735 589.522ZM670.212 591.901C669.984 591.151 669.593 589.979 669.202 588.903L673.6 588.382C674.089 590.891 674.871 593.465 675.653 595.55C676.663 598.286 678.194 601.088 679.269 602.587C679.823 603.402 680.409 604.086 680.996 604.77L679.009 607.669C677.184 607.311 673.046 606.888 670.31 606.66L670.635 603.206C672.232 603.369 674.382 603.532 675.392 603.63C674.219 601.707 672.786 598.971 671.776 596.266C671.059 594.475 670.603 592.976 670.212 591.901ZM658.353 593.432C664.445 594.149 669.397 594.116 673.307 593.693C676.207 593.334 679.074 592.78 681.648 591.999L682.136 596.071C679.986 596.69 677.184 597.179 674.578 597.472C670.245 597.993 665.097 598.124 658.418 597.57L658.353 593.432ZM664.901 604.509C663.826 606.073 663.305 607.507 663.305 608.908C663.305 611.677 665.748 612.817 670.212 612.85C673.763 612.85 676.63 612.491 678.911 612.035L678.683 616.173C676.826 616.499 673.893 616.922 669.951 616.922C663.272 616.922 659.102 614.348 659.102 609.624C659.102 607.637 659.721 605.78 660.829 603.564L664.901 604.509ZM706.408 588.675C706.311 589.327 706.213 590.141 706.18 590.989C706.115 592.65 706.082 597.276 706.082 600.013C706.082 603.597 706.604 609.494 706.604 612.068C706.604 614.87 704.486 617.02 700.218 617.02C695.005 617.02 692.269 615.033 692.269 611.579C692.269 608.289 695.298 605.975 700.283 605.975C707.451 605.975 712.794 609.494 715.498 611.775L713.152 615.424C710.057 612.491 705.333 609.331 699.762 609.331C697.481 609.331 696.211 610.211 696.211 611.351C696.211 612.589 697.351 613.338 699.599 613.338C701.326 613.338 702.499 612.85 702.499 610.96C702.499 609.005 702.14 603.173 702.14 600.013C702.14 596.886 702.173 592.748 702.173 590.891C702.173 590.304 702.108 589.294 701.977 588.675H706.408ZM692.888 591.705C695.201 592.096 698.947 592.422 700.935 592.422C705.366 592.422 709.634 592.194 714.39 591.445L714.358 595.159C711.035 595.615 705.854 596.006 700.967 596.006C698.882 596.006 695.103 595.713 692.953 595.452L692.888 591.705ZM692.692 598.743C694.842 599.134 698.817 599.362 700.544 599.362C706.571 599.362 710.774 598.971 714.781 598.449L714.749 602.294C710.253 602.815 706.701 603.011 700.511 603.011C698.589 603.011 694.908 602.848 692.757 602.587L692.692 598.743Z" fill="black"/>
<g filter="url(#filter1_d_102_111)">
<path d="M22.2864 426.225L32.266 428.76C27.9306 440.949 20.7322 452.728 13.452 460.09C11.5706 458.372 7.3988 455.1 5.0266 453.709C12.3886 447.329 18.769 436.859 22.2864 426.225ZM24.0042 435.55H76.029V445.039H19.2598L24.0042 435.55ZM18.1964 454.855H74.1476V464.016H28.0942V481.194H18.1964V454.855ZM5.272 476.368H80.528V485.857H5.272V476.368ZM42.2456 440.458H52.3888V503.362H42.2456V440.458ZM119.138 476.45H141.551V483.485H119.138V476.45ZM118.565 464.343H146.132V495.755H118.565V488.556H136.97V471.542H118.565V464.343ZM114.557 464.343H123.391V499.926H114.557V464.343ZM100.814 441.03H121.346V447.656H100.814V441.03ZM138.77 441.03H159.465V447.656H138.77V441.03ZM155.457 429.66H165.355V491.746C165.355 497.063 164.291 499.926 161.019 501.562C157.747 503.198 153.003 503.362 145.968 503.362C145.559 500.581 144.087 496 142.778 493.382C147.031 493.628 152.021 493.546 153.494 493.546C154.966 493.546 155.457 493.055 155.457 491.665V429.66ZM101.632 429.66H127.481V459.354H101.632V452.319H118.32V436.777H101.632V429.66ZM160.692 429.66V436.777H142.369V452.564H160.692V459.599H133.044V429.66H160.692ZM95.9882 429.66H105.722V503.362H95.9882V429.66ZM204.537 496V458.781C204.537 455.264 204.864 449.783 205.028 446.184H204.7C203.146 449.456 201.51 452.81 199.792 456.082L190.467 471.133H222.942V480.376H178.77V472.114L201.265 435.468H215.743V496H204.537ZM255.158 497.145C242.806 497.145 234.626 486.429 234.626 465.489C234.626 444.63 242.806 434.405 255.158 434.405C267.428 434.405 275.608 444.63 275.608 465.489C275.608 486.429 267.428 497.145 255.158 497.145ZM255.158 487.738C260.393 487.738 264.238 482.503 264.238 465.489C264.238 448.556 260.393 443.648 255.158 443.648C249.923 443.648 245.997 448.556 245.997 465.489C245.997 482.503 249.923 487.738 255.158 487.738ZM309.133 497.145C296.782 497.145 288.602 486.429 288.602 465.489C288.602 444.63 296.782 434.405 309.133 434.405C321.403 434.405 329.583 444.63 329.583 465.489C329.583 486.429 321.403 497.145 309.133 497.145ZM309.133 487.738C314.369 487.738 318.213 482.503 318.213 465.489C318.213 448.556 314.369 443.648 309.133 443.648C303.898 443.648 299.972 448.556 299.972 465.489C299.972 482.503 303.898 487.738 309.133 487.738ZM386.994 427.615H396.892V503.28H386.994V427.615ZM373.088 431.051L382.495 433.014C380.205 444.057 376.278 455.509 371.943 462.707C369.98 461.235 365.726 459.026 363.354 457.963C367.771 451.501 371.207 441.112 373.088 431.051ZM376.197 442.421H414.07V451.992H373.824L376.197 442.421ZM364.826 466.143H417.996V475.795H364.826V466.143ZM358.773 426.879L368.017 429.742C362.781 443.648 354.438 458.372 345.685 467.779C344.785 465.407 342.086 460.008 340.45 457.636C347.73 450.192 354.683 438.576 358.773 426.879ZM350.675 449.456L360 440.131V440.212V503.28H350.675V449.456ZM466.995 429.578H499.06V437.758H466.995V429.578ZM476.483 432.85L485.645 433.341C484.336 446.184 479.592 454.609 471.166 459.926C469.612 458.372 465.686 455.427 463.641 454.282C471.903 450.192 475.665 443.075 476.483 432.85ZM493.907 429.578H503.232C503.232 429.578 503.232 431.869 503.15 432.932C502.659 446.675 501.841 452.564 499.96 454.936C498.406 456.736 496.606 457.39 494.398 457.718C492.353 457.963 488.999 457.963 485.318 457.881C485.154 455.345 484.254 451.828 482.946 449.619C485.809 449.947 488.263 449.947 489.49 449.947C490.553 449.947 491.289 449.783 491.944 449.129C492.925 447.82 493.498 443.239 493.907 430.805V429.578ZM431.984 434.895H464.622V443.403H431.984V434.895ZM430.103 450.928H466.013V459.599H430.103V450.928ZM449.244 468.515H465.031V477.022H449.244V468.515ZM443.927 426.634H452.925V455.427H443.927V426.634ZM445.481 456.082H454.152V492.319H445.481V456.082ZM439.919 472.196C444.254 489.374 453.579 491.91 471.003 491.91C477.22 491.992 499.224 491.992 506.668 491.583C505.113 493.791 503.477 498.372 502.905 501.317H471.003C449.162 501.317 438.528 497.227 432.884 474.241L439.919 472.196ZM432.639 463.771L441.228 464.262C441.064 479.885 440.001 494.037 435.583 503.28C433.947 502.135 429.857 499.926 427.731 499.027C431.984 490.928 432.557 477.759 432.639 463.771ZM478.283 468.924V479.067H491.535V468.924H478.283ZM469.121 461.071H501.351V486.92H469.121V461.071ZM562.373 439.967C561.228 448.311 559.592 457.881 556.729 467.534C551.821 484.057 544.786 494.2 535.87 494.2C526.709 494.2 519.183 484.139 519.183 470.315C519.183 451.501 535.625 435.304 556.811 435.304C577.016 435.304 589.858 449.374 589.858 467.288C589.858 484.466 579.306 496.654 558.692 499.845L552.476 490.192C555.666 489.783 557.956 489.374 560.165 488.883C570.553 486.348 578.733 478.904 578.733 466.879C578.733 454.037 570.717 444.875 556.566 444.875C539.224 444.875 529.735 459.026 529.735 469.333C529.735 477.595 533.007 481.603 536.116 481.603C539.633 481.603 542.741 476.368 546.177 465.325C548.549 457.636 550.349 448.229 551.167 439.64L562.373 439.967ZM637.302 426.634H647.364V439.722H637.302V426.634ZM607.363 433.75H677.466V451.337H667.323V442.339H617.098V451.337H607.363V433.75ZM614.644 448.801H670.84V456.736H614.644V448.801ZM606.709 474.732H678.611V483.239H606.709V474.732ZM615.952 461.644H669.204V469.579H615.952V461.644ZM647.282 476.45C652.108 487.247 662.742 493.219 679.756 495.018C677.711 497.063 675.176 500.99 673.949 503.607C655.216 500.581 644.746 492.81 638.447 478.249L647.282 476.45ZM637.057 444.139H646.955V466.879C646.955 481.276 640.983 495.346 611.208 503.362C610.145 501.235 607.282 497.472 605.155 495.427C633.458 488.965 637.057 477.759 637.057 466.797V444.139ZM739.389 426.552H749.123V452.728H739.389V426.552ZM722.865 430.315H766.219V436.286H722.865V430.315ZM724.828 439.067H764.338V444.711H724.828V439.067ZM720.82 447.493H767.855V453.628H720.82V447.493ZM734.726 471.46V474.977H754.603V471.46H734.726ZM734.726 480.54V484.057H754.603V480.54H734.726ZM734.726 462.462V465.816H754.603V462.462H734.726ZM725.892 456.409H763.847V490.11H725.892V456.409ZM746.996 493.873L753.54 489.129C758.857 492.319 765.401 496.245 769.082 498.863L760.575 503.444C757.466 500.99 751.822 496.9 746.996 493.873ZM735.053 488.72L742.661 493.791C737.671 497.636 729.491 501.644 722.865 503.771C721.393 501.971 718.693 499.272 716.812 497.636C723.356 495.755 731.127 491.91 735.053 488.72ZM703.724 426.634L712.231 429.578C708.877 435.959 705.114 443.239 702.006 447.82L695.462 445.12C698.325 440.212 701.842 432.278 703.724 426.634ZM712.967 436.286L720.902 439.967C714.93 449.129 706.996 460.499 700.697 467.534L695.053 464.343C701.188 456.981 708.632 445.039 712.967 436.286ZM691.045 445.693L695.871 439.149C700.125 442.994 705.114 448.311 707.078 452.155L701.761 459.681C699.961 455.673 695.135 449.865 691.045 445.693ZM710.677 455.673L717.548 452.891C720.656 458.372 723.765 465.489 724.665 470.151L717.303 473.423C716.403 468.761 713.622 461.317 710.677 455.673ZM690.799 462.462C698.161 462.053 708.714 461.48 718.939 460.826L719.02 468.761C709.286 469.66 699.225 470.315 691.454 470.887L690.799 462.462ZM712.64 476.123L719.429 473.996C721.393 478.577 723.11 484.548 723.601 488.474L716.321 490.847C715.994 486.92 714.44 480.785 712.64 476.123ZM694.317 474.65L702.17 475.959C701.352 483.812 699.634 491.91 697.262 497.145C695.626 496.082 692.026 494.528 690.145 493.71C692.435 488.883 693.662 481.521 694.317 474.65ZM703.315 466.797H711.74V503.362H703.315V466.797Z" fill="white"/>
</g>
<g filter="url(#filter2_d_102_111)">
<path d="M22.2855 4.63584H27.9952V11.2739H22.2855V4.63584ZM5.52792 8.2566H45.0313V18.7475H39.3681V13.3164H10.9591V18.7475H5.52792V8.2566ZM12.5838 16.2873H37.6506V21.0221H12.5838V16.2873ZM17.1329 24.55L21.4036 22.0433C32.3587 29.6562 32.2658 42.7467 27.2989 46.321C25.5349 47.8529 24.0495 48.2706 21.5892 48.2706C20.4287 48.3171 19.0361 48.2706 17.6435 48.1778C17.5507 46.6459 17.0401 44.4178 16.0653 42.8395C17.7828 43.0252 19.3147 43.0716 20.5216 43.0716C21.6821 43.0716 22.5641 42.9323 23.3532 42.0968C25.9991 40.0543 25.9991 30.8631 17.1329 24.55ZM24.4673 17.4942L29.0629 19.3974C24.1423 24.4108 15.6939 27.9851 7.94176 30.0276C7.43114 28.9599 5.99212 26.7318 5.11014 25.7105C12.4909 24.2251 20.4287 21.347 24.4673 17.4942ZM20.8465 26.7318L24.4209 29.2384C20.568 32.2093 13.7443 35.6444 8.54522 37.4548C7.94176 36.2479 6.78126 34.3446 5.76002 33.2306C10.8198 32.0236 17.5507 29.2384 20.8465 26.7318ZM24.6065 31.1417L28.413 33.9733C23.446 38.7081 14.3941 43.6286 7.01336 46.0889C6.36348 44.6963 5.15656 42.7002 4.0889 41.4933C11.4233 39.6829 20.2895 35.3195 24.6065 31.1417ZM31.6624 18.2833C33.8905 28.0315 38.6718 36.3407 46.8881 40.0079C45.6348 41.122 43.8708 43.3501 43.0353 44.882C34.2619 40.1936 29.6199 30.9096 26.974 19.2117L31.6624 18.2833ZM40.7143 21.3006L45.0778 25.0606C41.8748 27.4745 37.8362 30.074 34.8189 31.6059L31.2446 28.2636C34.1691 26.5925 38.3004 23.6216 40.7143 21.3006ZM67.5915 17.1692V19.9544H84.9061V17.1692H67.5915ZM67.5915 23.8537V26.6853H84.9061V23.8537H67.5915ZM67.5915 10.4848V13.2235H84.9061V10.4848H67.5915ZM62.1139 6.26054H90.6622V30.8631H62.1139V6.26054ZM55.5687 33.0449H97.0217V38.1975H55.5687V33.0449ZM78.6858 42.0968L82.9565 38.3832C88.1555 40.1936 94.1901 42.7002 97.718 44.4178L92.0084 48.1778C88.9911 46.4138 83.6992 43.9072 78.6858 42.0968ZM69.0305 38.1047L73.8582 41.8647C69.7268 44.2321 63.5993 46.7388 58.8181 48.1778C57.9361 46.9709 56.265 45.0677 55.0116 43.8607C59.7929 42.6074 65.8739 40.1007 69.0305 38.1047ZM142.792 16.9371C141.353 17.7727 139.867 18.6083 138.15 19.4438C135.272 20.8828 129.469 23.6216 125.199 26.3604C121.346 28.8671 118.746 31.5594 118.746 34.7624C118.746 38.1047 121.996 39.915 128.448 39.915C133.183 39.915 139.45 39.1723 143.581 38.1975L143.535 44.882C139.542 45.5319 134.668 46.0425 128.634 46.0425C119.35 46.0425 112.34 43.443 112.34 35.4587C112.34 29.5634 116.657 25.432 122.181 21.8112C126.591 18.8868 132.44 16.0087 135.272 14.384C137.036 13.3628 138.336 12.5737 139.542 11.5988L142.792 16.9371ZM119.443 7.00326C121.671 13.1771 124.595 18.7475 126.777 22.6468L121.485 25.7105C118.932 21.4863 116.147 15.4053 113.594 9.4171L119.443 7.00326ZM175.472 5.2393H181.599V41.2148C181.599 44.6499 180.81 46.1817 178.675 47.0637C176.539 47.9921 173.336 48.1778 168.787 48.1314C168.509 46.5067 167.441 43.8607 166.559 42.3289C169.623 42.5146 173.104 42.4681 174.079 42.4217C175.1 42.4217 175.472 42.0968 175.472 41.1684V5.2393ZM186.659 17.4478L192.09 15.4053C195.896 21.9505 199.749 30.4454 200.91 36.2479L194.829 38.6617C193.854 33.0449 190.326 24.2715 186.659 17.4478ZM163.309 15.8695L169.669 16.9371C168.091 23.9466 165.538 32.6271 161.638 37.7797C160.292 36.7585 157.739 35.4587 156.207 34.8553C159.967 30.1204 162.335 21.9505 163.309 15.8695ZM230.201 4.58942L235.214 5.56424C233.543 13.27 230.479 20.6507 226.719 25.2927C225.837 24.4572 223.655 22.8789 222.495 22.1826C226.209 18.0976 228.808 11.4596 230.201 4.58942ZM245.798 11.8309H251.043C251.043 11.8309 250.997 13.6413 250.95 14.3376C250.068 35.1802 249.233 42.7931 247.469 45.1141C246.401 46.6924 245.38 47.2494 243.848 47.5279C242.548 47.8064 240.599 47.8064 238.556 47.7136C238.417 46.1353 237.86 43.7679 237.024 42.236C238.742 42.4217 240.32 42.4681 241.202 42.4681C241.899 42.4681 242.316 42.236 242.873 41.5862C244.173 39.9615 245.055 32.7664 245.798 13.0379V11.8309ZM231.593 11.8309H248.165V16.9836H229.04L231.593 11.8309ZM234.843 13.5021L238.881 15.4981C237.024 23.4824 232.939 32.6735 227.88 37.4084C226.812 36.3407 225.048 35.0409 223.609 34.2518C228.994 30.0276 233.079 21.3006 234.843 13.5021ZM241.295 14.0127L245.612 16.0087C243.384 28.0779 238.463 40.7042 230.804 47.1101C229.737 45.9961 227.787 44.6035 226.255 43.8607C234.379 38.0582 239.16 25.9426 241.295 14.0127ZM207.455 29.8883C212.004 28.8671 218.781 26.9639 225.187 25.1535L225.93 30.074C220.081 31.8844 213.722 33.7876 208.801 35.2266L207.455 29.8883ZM215.811 4.58942H220.917V48.1778H215.811V4.58942ZM209.683 7.23536L214.325 8.0245C213.722 14.1519 212.608 20.6507 210.936 24.7821C210.101 24.1322 208.105 22.8325 206.991 22.2754C208.476 18.5618 209.265 12.7593 209.683 7.23536ZM210.936 13.5485H224.77V18.8868H209.915L210.936 13.5485ZM264.552 11.0418C266.315 11.2275 268.683 11.3667 270.308 11.3667H293.703C295.049 11.3667 296.953 11.2739 297.742 11.2275C297.695 12.3416 297.603 14.1519 297.603 15.5445V39.5901C297.603 41.2148 297.742 43.6286 297.835 45.0677H291.104C291.15 43.6751 291.197 42.0039 291.197 40.2864V17.3549H270.308C268.358 17.3549 265.851 17.4478 264.552 17.5406V11.0418ZM263.994 36.2479C265.573 36.3871 267.662 36.5264 269.751 36.5264H294.864V42.6538H269.936C268.126 42.6538 265.526 42.7467 263.994 42.9323V36.2479ZM312.596 22.5075C314.314 22.6468 317.656 22.8325 320.07 22.8325C325.547 22.8325 340.866 22.8325 344.997 22.8325C347.179 22.8325 349.222 22.6004 350.475 22.5075V29.8419C349.361 29.7955 346.993 29.5634 345.044 29.5634C340.82 29.5634 325.547 29.5634 320.07 29.5634C317.47 29.5634 314.36 29.7026 312.596 29.8419V22.5075ZM365.794 8.99932C367.279 9.185 369.229 9.32426 370.76 9.32426C373.685 9.32426 383.247 9.32426 385.986 9.32426C387.564 9.32426 389.375 9.185 390.953 8.99932V14.9875C389.375 14.8947 387.564 14.8018 385.986 14.8018C383.247 14.8018 373.685 14.8018 370.807 14.8018C369.182 14.8018 367.233 14.8947 365.794 14.9875V8.99932ZM360.455 20.8364C361.801 21.0221 363.426 21.1614 364.865 21.1614C367.79 21.1614 392.531 21.1614 395.27 21.1614C396.245 21.1614 398.288 21.0685 399.541 20.8364V26.9174C398.38 26.8246 396.57 26.7782 395.27 26.7782C392.531 26.7782 367.79 26.7782 364.865 26.7782C363.519 26.7782 361.709 26.8246 360.455 26.9174V20.8364ZM384.176 24.0858C384.176 30.1668 383.108 34.8088 381.159 38.7081C379.534 41.9111 375.959 45.5319 371.828 47.6208L366.351 43.6751C369.646 42.3753 372.942 39.7294 374.799 36.9906C377.12 33.5091 377.723 29.0992 377.723 24.1322L384.176 24.0858ZM393.738 5.79634C394.899 7.46746 396.57 10.4383 397.406 12.1559L393.692 13.7342C392.764 11.8309 391.325 9.09216 390.071 7.28178L393.738 5.79634ZM399.216 3.70744C400.423 5.42498 402.14 8.39586 402.976 10.0206L399.309 11.5988C398.334 9.6492 396.848 6.95684 395.549 5.19288L399.216 3.70744ZM407.511 30.8167C413.592 29.4705 420.462 26.3604 424.129 24.1322C428.678 21.3935 433.32 17.2621 435.734 14.2448L440.33 18.7475C437.544 21.7648 431.928 26.1283 426.868 29.0992C422.69 31.5594 415.541 34.6696 410.249 36.2479L407.511 30.8167ZM423.618 27.7994L429.931 26.5925V43.0716C429.931 44.7427 429.978 47.203 430.256 48.1314H423.34C423.479 47.203 423.618 44.7427 423.618 43.0716V27.7994ZM478.115 6.12128C477.93 7.18894 477.79 8.9529 477.79 10.3919C477.79 11.7845 477.79 14.1519 477.79 15.5445H471.709C471.709 14.1519 471.709 12.0166 471.709 10.3919C471.709 8.90648 471.663 7.23536 471.477 6.12128H478.115ZM491.067 16.0552C489.906 17.2621 488.467 18.7939 487.492 19.908C484.893 22.8789 480.993 26.7318 476.769 29.7026C471.756 33.277 464.654 36.3407 457.459 38.5224L453.884 33.0449C462.843 31.0488 468.785 27.8458 472.777 25.2463C476.351 22.9717 479.23 20.233 480.622 18.3297C478.115 18.3297 465.768 18.3297 463.818 18.3297C462.147 18.3297 459.222 18.4226 457.737 18.5618V12.4808C459.501 12.7129 462.101 12.7593 463.679 12.7593C465.768 12.7593 480.622 12.7593 483.361 12.7593C484.8 12.7593 486.146 12.6201 487.214 12.3416L491.067 16.0552ZM477.698 26.1747C477.698 29.517 477.698 36.9906 477.698 40.7506C477.698 42.561 477.837 45.2069 477.976 46.6459H471.338C471.477 45.3462 471.663 42.561 471.663 40.7506C471.663 37.1763 471.663 31.4666 471.663 28.6814L477.698 26.1747ZM491.763 38.9402C487.724 35.7837 484.661 33.834 480.669 31.5594L484.475 27.1495C488.746 29.4241 491.159 30.8167 495.616 33.834L491.763 38.9402ZM504.296 22.5075C506.014 22.6468 509.356 22.8325 511.77 22.8325C517.247 22.8325 532.566 22.8325 536.697 22.8325C538.879 22.8325 540.922 22.6004 542.175 22.5075V29.8419C541.061 29.7955 538.694 29.5634 536.744 29.5634C532.52 29.5634 517.247 29.5634 511.77 29.5634C509.17 29.5634 506.06 29.7026 504.296 29.8419V22.5075ZM563.343 39.5901C563.343 36.0158 563.343 16.7979 563.343 12.8986C563.343 11.2275 563.203 8.9529 562.878 7.28178H570.12C569.934 8.9529 569.702 10.949 569.702 12.8986C569.702 18.0048 569.748 36.155 569.748 39.5901C569.748 40.8899 569.934 44.1393 570.166 46.0425H562.878C563.203 44.2321 563.343 41.4005 563.343 39.5901ZM568.356 19.3046C574.53 21.0221 584.556 24.6893 589.106 26.9174L586.506 33.3698C581.214 30.631 573.416 27.6602 568.356 25.989V19.3046ZM624.988 12.2023C624.338 16.9371 623.41 22.3683 621.785 27.8458C619 37.2227 615.008 42.9788 609.948 42.9788C604.749 42.9788 600.479 37.2691 600.479 29.4241C600.479 18.7475 609.809 9.55636 621.832 9.55636C633.297 9.55636 640.585 17.5406 640.585 27.7066C640.585 37.4548 634.597 44.3714 622.899 46.1817L619.371 40.7042C621.182 40.4721 622.482 40.24 623.735 39.9615C629.63 38.5224 634.272 34.2982 634.272 27.4745C634.272 20.1865 629.723 14.9875 621.692 14.9875C611.851 14.9875 606.467 23.0182 606.467 28.8671C606.467 33.5555 608.324 35.8301 610.087 35.8301C612.084 35.8301 613.847 32.8592 615.797 26.5925C617.143 22.229 618.165 16.8907 618.629 12.0166L624.988 12.2023ZM668.809 4.58942H674.565V12.1559H668.809V4.58942ZM668.809 32.1165H674.565V44.5106H668.809V32.1165ZM663.842 13.3164H669.598C668.762 21.347 666.441 26.4532 654.233 29.0992C653.769 27.7066 652.423 25.4784 651.262 24.3643C661.753 22.554 663.192 19.1653 663.842 13.3164ZM674.008 13.2235H679.532V21.2078C679.532 22.4611 679.81 22.6004 681.203 22.6004C681.853 22.6004 684.545 22.6004 685.381 22.6004C686.541 22.6004 686.773 22.1362 686.959 19.2581C688.027 20.0473 690.255 20.8364 691.74 21.1614C691.137 26.0355 689.698 27.3352 685.938 27.3352C684.824 27.3352 681.435 27.3352 680.414 27.3352C675.168 27.3352 674.008 25.8962 674.008 21.2078V13.2235ZM651.912 8.76722H691.833V18.4226H686.077V13.7806H657.389V19.2581H651.912V8.76722ZM656.322 29.9347H688.305V34.9017H656.322V29.9347ZM651.401 41.9111H692.204V46.9245H651.401V41.9111ZM716.482 32.9056H729.201V36.8977H716.482V32.9056ZM716.157 26.0355H731.801V43.8607H716.157V39.7758H726.602V30.1204H716.157V26.0355ZM713.883 26.0355H718.896V46.2282H713.883V26.0355ZM706.084 12.8058H717.735V16.5658H706.084V12.8058ZM727.623 12.8058H739.367V16.5658H727.623V12.8058ZM737.093 6.35338H742.709V41.5862C742.709 44.6035 742.106 46.2282 740.249 47.1566C738.392 48.085 735.7 48.1778 731.708 48.1778C731.476 46.5995 730.64 44 729.897 42.5146C732.311 42.6538 735.143 42.6074 735.978 42.6074C736.814 42.6074 737.093 42.3289 737.093 41.5397V6.35338ZM706.548 6.35338H721.217V23.2038H706.548V19.2117H716.018V10.3919H706.548V6.35338ZM740.063 6.35338V10.3919H729.665V19.351H740.063V23.3431H724.373V6.35338H740.063ZM703.345 6.35338H708.869V48.1778H703.345V6.35338ZM765.641 8.2566H795.164V16.8443H789.872V12.7593H770.701V16.8443H765.641V8.2566ZM777.199 4.58942H782.863V11.9238H777.199V4.58942ZM777.339 18.4226H782.677V36.6192H777.339V18.4226ZM781.841 41.4933L786.159 38.6617C789.269 40.4721 793.632 43.2109 795.907 45.0677L791.358 48.2242C789.361 46.3674 785.044 43.443 781.841 41.4933ZM773.347 39.1723L778.685 41.1684C775.853 43.9536 771.351 46.7852 767.637 48.4563C766.709 47.3887 764.62 45.3462 763.413 44.4178C767.08 43.2573 771.072 41.2148 773.347 39.1723ZM772.511 32.6735V35.1338H787.922V32.6735H772.511ZM772.511 26.3604V28.8207H787.922V26.3604H772.511ZM767.591 22.2754H793.075V39.2187H767.591V22.2754ZM769.308 15.591H791.358V20.0009H769.308V15.591ZM754.407 8.90648L757.471 4.72868C760.256 5.79634 763.877 7.69956 765.687 9.185L762.438 13.827C760.767 12.2023 757.192 10.1134 754.407 8.90648ZM751.993 21.4863L755.057 17.2621C757.796 18.2369 761.417 20.0473 763.227 21.4863L759.978 26.1283C758.307 24.6429 754.825 22.6468 751.993 21.4863ZM753.2 44.3249C755.382 40.7506 758.446 34.8553 760.813 29.3777L765.223 32.6735C763.134 37.6869 760.581 43.118 758.167 47.6672L753.2 44.3249ZM809.183 40.0079H840.934V45.4854H809.183V40.0079ZM821.809 5.05362H827.612V43.3501H821.809V5.05362ZM806.444 28.4029H812.107V48.1778H806.444V28.4029ZM837.963 28.4029H843.766V48.1314H837.963V28.4029ZM808.301 8.9529H813.871V20.5115H836.014V8.9529H841.909V25.8962H808.301V8.9529Z" fill="white"/>
</g>
<path d="M7.11719 221.55L771 220.994" stroke="#F9C038" stroke-width="12.24"/>
<path d="M7 377H630" stroke="#F9C038" stroke-width="12.24"/>
<g filter="url(#filter3_d_102_111)">
<path d="M52.7412 100.152H108.888V114.035H52.7412V100.152ZM103.605 100.152H118.717C118.717 100.152 118.717 105.681 118.594 107.647C117.366 169.322 116.137 190.946 111.468 197.58C108.274 202.494 105.08 204.092 100.534 205.075C95.9879 205.935 89.2306 205.812 82.5962 205.566C82.3504 201.389 80.5075 194.754 77.9275 190.331C84.4391 190.946 90.0906 190.946 93.0393 190.946C95.1279 190.946 96.3565 190.331 97.7079 188.488C101.394 184.188 102.622 161.828 103.605 103.715V100.152ZM70.6787 106.541H85.7905C84.9305 144.627 83.2105 183.82 53.7241 206.18C51.144 202.249 46.5982 197.334 42.6667 194.631C70.0644 175.342 70.0644 140.45 70.6787 106.541ZM23.5005 154.088L37.998 136.764V206.057H23.5005V154.088ZM7.5287 112.561H44.2638V125.707H7.5287V112.561ZM23.5005 90.8147H37.998V119.687H23.5005V90.8147ZM36.5237 144.75C40.578 147.945 53.9698 160.722 57.1641 163.916L48.4411 175.22C44.0181 168.708 33.9436 156.791 28.7835 151.508L36.5237 144.75ZM40.2095 112.561H43.0352L45.6153 111.824L53.8469 117.352C45.001 141.064 27.8006 164.162 11.7059 176.817C10.3545 173.131 6.42296 165.882 4.08862 163.302C18.9547 152.982 33.9436 133.201 40.2095 115.387V112.561ZM50.8983 135.904L60.3585 143.767C55.0755 148.682 50.6526 154.333 46.8439 157.896L40.0866 151.999C43.5267 147.822 48.4411 140.696 50.8983 135.904ZM206.439 96.2206H238.26V109.489H206.439V96.2206ZM206.439 123.987H238.26V136.887H206.439V123.987ZM206.439 151.999H238.383V165.145H206.439V151.999ZM231.871 96.2206H246.123V189.84C246.123 196.966 244.771 201.02 240.348 203.232C236.048 205.566 229.782 205.935 220.568 205.935C220.199 202.003 218.234 195.614 216.391 191.928C221.674 192.174 227.694 192.174 229.414 192.051C231.257 192.051 231.871 191.437 231.871 189.594V96.2206ZM200.419 96.2206H214.179V141.31C214.179 160.722 212.582 188.857 202.139 206.303C199.682 203.723 193.662 199.423 190.467 197.949C199.682 182.223 200.419 158.879 200.419 141.31V96.2206ZM136.04 105.189H196.242V117.967H136.04V105.189ZM152.135 125.216H181.376V136.519H152.135V125.216ZM152.135 144.382H181.498V155.562H152.135V144.382ZM134.566 163.794H195.382V176.694H134.566V163.794ZM145.746 92.0433H159.015V168.462H145.746V92.0433ZM174.373 92.0433H187.887V168.462H174.373V92.0433ZM149.923 177.554L163.807 181.608C159.261 190.7 152.012 200.283 145.5 206.303C142.675 203.846 137.023 199.669 133.583 197.703C140.218 192.666 146.483 185.048 149.923 177.554ZM168.107 183.083L179.287 176.94C184.201 182.345 190.467 189.84 193.293 194.877L181.376 201.88C178.918 196.966 173.021 188.857 168.107 183.083ZM281.752 109.612H354.854V104.821H272.906V96.0977H368.246V118.335H281.752V109.612ZM277.452 109.612H291.212C288.632 117.598 285.561 126.69 283.104 132.833L269.712 131.973C272.415 125.83 275.364 116.984 277.452 109.612ZM278.804 123.004H367.14V131.727H276.101L278.804 123.004ZM362.348 123.004H376.109C376.109 123.004 375.986 125.461 375.986 126.936C375.372 134.921 374.634 139.222 372.546 141.556C370.703 143.522 368 144.382 365.42 144.627C362.963 144.75 358.54 144.75 353.748 144.505C353.625 142.047 352.397 138.116 351.168 135.659C354.24 136.027 356.697 136.15 358.048 136.15C359.154 136.15 359.891 136.027 360.628 135.29C361.488 134.184 361.857 131.359 362.348 124.601V123.004ZM300.918 90.6919H314.31V116.124C314.31 133.57 308.413 146.839 271.923 152.245C270.695 149.05 267.378 143.522 264.92 140.942C296.495 136.764 300.918 127.918 300.918 115.755V90.6919ZM328.07 90.6919H342.076V140.204H328.07V90.6919ZM295.39 160.968V166.005H348.465V160.968H295.39ZM295.39 173.868V178.905H348.465V173.868H295.39ZM295.39 148.19V153.105H348.465V148.19H295.39ZM281.138 139.836H363.454V187.26H281.138V139.836ZM328.193 193.157L340.111 185.785C353.257 189.84 368.614 195.369 377.46 199.177L360.997 206.303C353.871 202.494 340.971 197.334 328.193 193.157ZM301.164 185.785L314.31 191.806C304.236 197.826 288.387 203.354 275.855 206.549C273.398 203.6 268.36 198.317 265.166 195.86C278.189 193.771 292.81 190.086 301.164 185.785ZM414.81 98.9235H490.246V112.93H414.81V98.9235ZM414.81 127.181H490.491V140.942H414.81V127.181ZM414.564 156.176H490.983V170.059H414.564V156.176ZM406.332 98.9235H420.953V143.153C420.953 162.688 418.495 190.331 403.384 206.795C401.049 203.969 395.029 199.054 391.835 197.211C405.227 182.345 406.332 160.353 406.332 143.03V98.9235ZM485.086 98.9235H499.706V188.734C499.706 196.597 497.986 200.529 493.071 202.863C487.911 205.197 480.54 205.443 469.359 205.32C468.745 201.389 466.534 195 464.568 191.191C471.571 191.683 479.68 191.56 481.891 191.56C484.226 191.437 485.086 190.7 485.086 188.611V98.9235ZM444.173 104.452H459.162V204.583H444.173V104.452ZM590.622 110.841C588.902 123.373 586.445 137.747 582.145 152.245C574.773 177.062 564.207 192.297 550.816 192.297C537.055 192.297 525.752 177.185 525.752 156.422C525.752 128.164 550.447 103.838 582.268 103.838C612.614 103.838 631.903 124.97 631.903 151.876C631.903 177.677 616.054 195.983 585.094 200.774L575.756 186.277C580.548 185.663 583.988 185.048 587.305 184.311C602.908 180.503 615.194 169.322 615.194 151.262C615.194 131.973 603.154 118.212 581.899 118.212C555.853 118.212 541.601 139.467 541.601 154.948C541.601 167.356 546.516 173.377 551.184 173.377C556.467 173.377 561.136 165.514 566.296 148.927C569.859 137.379 572.562 123.25 573.79 110.349L590.622 110.841ZM673.184 102.118C676.501 102.364 680.802 102.609 683.382 102.609C690.507 102.609 703.531 102.118 709.182 101.626C712.254 101.381 715.448 100.644 717.66 99.7835L727.365 107.524C725.768 109.367 724.294 110.964 723.311 112.561C719.134 119.564 712.499 135.413 706.971 148.19C702.056 159.493 696.159 174.114 691.122 181.854C686.207 189.348 680.433 192.666 671.956 192.666C661.267 192.666 653.158 185.294 653.158 172.762C653.158 153.105 671.956 137.993 698.248 137.993C726.874 137.993 751.937 153.228 764.838 162.074L757.712 179.151C742.6 165.759 720.977 151.753 695.668 151.753C677.73 151.753 667.41 161.459 667.41 170.428C667.41 174.482 669.744 176.571 672.693 176.571C675.15 176.571 676.747 175.465 679.081 172.394C683.136 166.374 687.559 155.07 691.982 145.365C696.282 135.659 701.319 123.618 705.005 116.001C700.091 116.124 689.402 116.492 683.873 116.861C681.293 116.984 676.993 117.475 673.798 117.844L673.184 102.118ZM754.026 131.113C752.306 166.005 745.426 188.611 716.062 203.846L702.916 193.157C733.263 180.134 736.949 157.159 738.054 142.784C738.3 137.993 738.423 133.079 737.931 129.27L754.026 131.113ZM780.642 149.091C783.256 149.024 785.937 148.89 787.21 148.756C792.773 148.22 803.831 147.282 816.096 146.209C823.066 145.673 830.371 145.204 835.13 145.003L835.197 153.649C831.578 153.649 825.814 153.716 822.195 154.52C814.152 156.665 808.054 165.377 808.054 173.353C808.054 184.344 818.375 188.365 829.701 188.901L826.551 198.083C812.544 197.212 799.274 189.638 799.274 175.095C799.274 165.511 804.703 157.871 809.193 154.453C802.96 155.123 789.221 156.598 781.514 158.273L780.642 149.091ZM825.613 160.217C827.221 162.562 829.634 166.651 830.907 169.331L825.881 171.543C824.138 167.924 822.731 165.243 820.653 162.294L825.613 160.217ZM833.052 157.134C834.795 159.479 837.341 163.434 838.749 166.047L833.722 168.46C831.913 164.841 830.371 162.294 828.227 159.345L833.052 157.134ZM30.8721 249.692L45.3696 253.869C38.6123 267.507 27.6777 280.775 17.3575 288.884C14.6546 286.181 8.7573 281.513 5.31722 279.301C15.6375 272.421 25.4663 261.118 30.8721 249.692ZM29.8892 262.592H114.54V275.615H26.3263L29.8892 262.592ZM7.89728 291.219H118.963V304.365H7.89728V291.219ZM9.9859 320.091H117.243V333.237H9.9859V320.091ZM46.3525 267.261H58.7613V326.971H46.3525V267.261ZM24.6062 267.261H37.6294V327.094H24.6062V267.261ZM67.7301 267.261H80.0161V327.094H67.7301V267.261ZM89.3535 267.261H102.868V327.094H89.3535V267.261ZM42.6667 340.117L56.3041 338.52C57.9013 346.014 59.3756 355.72 59.4985 361.74L45.001 363.829C45.001 357.809 44.141 347.734 42.6667 340.117ZM67.1158 340.363L80.999 338.028C84.0705 345.277 87.142 354.983 88.2477 361.003L73.5045 363.952C72.6445 357.932 69.9416 347.98 67.1158 340.363ZM91.5649 339.748L105.694 335.325C111.223 342.82 118.226 353.263 121.297 360.143L106.308 365.18C103.605 358.423 97.0936 347.611 91.5649 339.748ZM20.5519 335.817L34.9265 339.257C32.1007 348.717 26.8177 358.792 20.9204 365.18L6.66868 359.529C12.3202 354.369 17.7261 344.785 20.5519 335.817ZM206.439 255.221H238.26V268.489H206.439V255.221ZM206.439 282.987H238.26V295.887H206.439V282.987ZM206.439 310.999H238.383V324.145H206.439V310.999ZM231.871 255.221H246.123V348.84C246.123 355.966 244.771 360.02 240.348 362.232C236.048 364.566 229.782 364.935 220.568 364.935C220.199 361.003 218.234 354.614 216.391 350.928C221.674 351.174 227.694 351.174 229.414 351.051C231.257 351.051 231.871 350.437 231.871 348.594V255.221ZM200.419 255.221H214.179V300.31C214.179 319.722 212.582 347.857 202.139 365.303C199.682 362.723 193.662 358.423 190.467 356.949C199.682 341.223 200.419 317.879 200.419 300.31V255.221ZM136.04 264.189H196.242V276.967H136.04V264.189ZM152.135 284.216H181.376V295.519H152.135V284.216ZM152.135 303.382H181.498V314.562H152.135V303.382ZM134.566 322.794H195.382V335.694H134.566V322.794ZM145.746 251.043H159.015V327.462H145.746V251.043ZM174.373 251.043H187.887V327.462H174.373V251.043ZM149.923 336.554L163.807 340.608C159.261 349.7 152.012 359.283 145.5 365.303C142.675 362.846 137.023 358.669 133.583 356.703C140.218 351.666 146.483 344.048 149.923 336.554ZM168.107 342.083L179.287 335.94C184.201 341.345 190.467 348.84 193.293 353.877L181.376 360.88C178.918 355.966 173.021 347.857 168.107 342.083ZM322.05 277.704H364.437V289.744H322.05V277.704ZM300.918 348.84C312.099 347.243 329.299 344.171 345.762 341.223L346.868 354C332.616 357.317 317.504 360.634 305.833 363.215L300.918 348.84ZM313.696 255.221H328.07V352.28H313.696V255.221ZM322.05 255.221H371.071V312.596H322.05V299.942H356.574V267.875H322.05V255.221ZM347.728 304.242C352.151 326.111 361.611 344.294 379.672 352.28C376.477 355.106 372.177 360.88 370.089 364.689C350.308 354.246 340.725 333.36 335.442 306.207L347.728 304.242ZM365.42 313.456L376.969 321.565C370.211 327.954 362.348 334.834 356.205 339.257L346.991 332.131C352.888 327.339 360.874 319.599 365.42 313.456ZM268.975 254.975H299.69V268.121H282.735V365.18H268.975V254.975ZM295.635 254.975H298.215L300.304 254.483L310.256 260.258C306.939 270.947 302.516 284.584 298.707 294.167C306.816 303.75 308.413 312.228 308.413 319.353C308.413 327.585 306.57 332.745 302.516 335.571C300.55 337.045 298.093 337.905 295.267 338.274C292.932 338.642 289.738 338.642 286.789 338.52C286.667 334.834 285.561 329.059 283.472 325.374C285.807 325.619 287.527 325.619 289.124 325.619C290.475 325.496 291.704 325.251 292.81 324.514C294.407 323.408 295.021 320.951 295.021 317.511C295.021 311.736 293.178 304.119 285.929 295.764C289.492 284.707 293.67 267.261 295.635 259.398V254.975ZM432.747 264.435L504.006 260.258L505.235 270.947L433.853 275.37L432.747 264.435ZM446.262 249.692H459.899C462.356 268.367 477.468 281.635 491.106 281.635C494.3 281.513 495.283 279.547 495.774 273.158C498.6 275.492 503.146 277.458 506.709 278.441C504.866 291.71 500.566 294.413 490.491 294.413C469.237 294.29 449.21 276.721 446.262 249.692ZM467.762 256.449L474.397 249.323C481.4 250.552 490.737 253.623 495.774 256.203L488.648 264.066C484.103 261.486 474.888 258.169 467.762 256.449ZM426.358 248.709L439.627 253.746C430.044 265.787 414.932 277.212 401.786 284.093C399.452 281.39 394.415 275.984 391.343 273.527C404.612 267.875 418.373 258.661 426.358 248.709ZM414.932 268.367L424.27 259.152L429.061 260.504V291.096H414.932V268.367ZM424.27 316.528V321.811H477.714V316.528H424.27ZM424.27 330.165V335.571H477.714V330.165H424.27ZM424.27 303.013V308.173H477.714V303.013H424.27ZM410.018 294.167H492.58V344.294H410.018V294.167ZM457.319 350.683L469.605 343.68C482.505 348.348 497.74 354.491 506.463 358.792L489.263 365.426C482.383 361.249 469.728 355.351 457.319 350.683ZM430.044 343.311L443.559 349.331C433.484 355.843 417.513 361.986 404.981 365.549C402.401 362.6 397.363 357.194 394.046 354.737C407.069 352.28 421.69 347.98 430.044 343.311ZM537.547 343.434H621.583V357.932H537.547V343.434ZM570.965 250.92H586.322V352.28H570.965V250.92ZM530.298 312.719H545.287V365.057H530.298V312.719ZM613.72 312.719H629.077V364.935H613.72V312.719ZM535.212 261.241H549.956V291.833H608.56V261.241H624.163V306.085H535.212V261.241Z" fill="white"/>
</g>
<defs>
<filter id="filter0_d_102_111" x="0.91795" y="680.999" width="759.529" height="51.3306" filterUnits="userSpaceOnUse" color-interpolation-filters="sRGB">
<feFlood flood-opacity="0" result="BackgroundImageFix"/>
<feColorMatrix in="SourceAlpha" type="matrix" values="0 0 0 0 0 0 0 0 0 0 0 0 0 0 0 0 0 0 127 0" result="hardAlpha"/>
<feOffset dy="2.82814"/>
<feGaussianBlur stdDeviation="1.41407"/>
<feComposite in2="hardAlpha" operator="out"/>
<feColorMatrix type="matrix" values="0 0 0 0 0 0 0 0 0 0 0 0 0 0 0 0 0 0 0.25 0"/>
<feBlend mode="normal" in2="BackgroundImageFix" result="effect1_dropShadow_102_111"/>
<feBlend mode="normal" in="SourceGraphic" in2="effect1_dropShadow_102_111" result="shape"/>
</filter>
<filter id="filter1_d_102_111" x="2.46866" y="426.225" width="769.171" height="82.6618" filterUnits="userSpaceOnUse" color-interpolation-filters="sRGB">
<feFlood flood-opacity="0" result="BackgroundImageFix"/>
<feColorMatrix in="SourceAlpha" type="matrix" values="0 0 0 0 0 0 0 0 0 0 0 0 0 0 0 0 0 0 127 0" result="hardAlpha"/>
<feOffset dy="2.55771"/>
<feGaussianBlur stdDeviation="1.27886"/>
<feComposite in2="hardAlpha" operator="out"/>
<feColorMatrix type="matrix" values="0 0 0 0 0 0 0 0 0 0 0 0 0 0 0 0 0 0 0.25 0"/>
<feBlend mode="normal" in2="BackgroundImageFix" result="effect1_dropShadow_102_111"/>
<feBlend mode="normal" in="SourceGraphic" in2="effect1_dropShadow_102_111" result="shape"/>
</filter>
<filter id="filter2_d_102_111" x="2.19921" y="3.70752" width="843.456" height="48.5283" filterUnits="userSpaceOnUse" color-interpolation-filters="sRGB">
<feFlood flood-opacity="0" result="BackgroundImageFix"/>
<feColorMatrix in="SourceAlpha" type="matrix" values="0 0 0 0 0 0 0 0 0 0 0 0 0 0 0 0 0 0 127 0" result="hardAlpha"/>
<feOffset dy="1.88965"/>
<feGaussianBlur stdDeviation="0.944826"/>
<feComposite in2="hardAlpha" operator="out"/>
<feColorMatrix type="matrix" values="0 0 0 0 0 0 0 0 0 0 0 0 0 0 0 0 0 0 0.25 0"/>
<feBlend mode="normal" in2="BackgroundImageFix" result="effect1_dropShadow_102_111"/>
<feBlend mode="normal" in="SourceGraphic" in2="effect1_dropShadow_102_111" result="shape"/>
</filter>
<filter id="filter3_d_102_111" x="0.425114" y="90.6919" width="841.987" height="282.183" filterUnits="userSpaceOnUse" color-interpolation-filters="sRGB">
<feFlood flood-opacity="0" result="BackgroundImageFix"/>
<feColorMatrix in="SourceAlpha" type="matrix" values="0 0 0 0 0 0 0 0 0 0 0 0 0 0 0 0 0 0 127 0" result="hardAlpha"/>
<feOffset dy="3.66327"/>
<feGaussianBlur stdDeviation="1.83163"/>
<feComposite in2="hardAlpha" operator="out"/>
<feColorMatrix type="matrix" values="0 0 0 0 0 0 0 0 0 0 0 0 0 0 0 0 0 0 0.25 0"/>
<feBlend mode="normal" in2="BackgroundImageFix" result="effect1_dropShadow_102_111"/>
<feBlend mode="normal" in="SourceGraphic" in2="effect1_dropShadow_102_111" result="shape"/>
</filter>
</defs>
</svg>
