<svg width="55" height="50" viewBox="0 0 55 50" fill="none" xmlns="http://www.w3.org/2000/svg">
<path fill-rule="evenodd" clip-rule="evenodd" d="M55 17.3078C55 16.2309 54.0692 15.3848 52.8846 15.3848H19.0385C17.8539 15.3848 16.9231 16.2309 16.9231 17.3078C16.9231 18.3848 17.8539 19.2309 19.0385 19.2309H52.8846C54.0692 19.2309 55 18.3848 55 17.3078Z" fill="white"/>
<path fill-rule="evenodd" clip-rule="evenodd" d="M55 1.92308C55 0.846154 54.0692 0 52.8846 0H2.11539C0.930771 0 0 0.846154 0 1.92308C0 3 0.930771 3.84615 2.11539 3.84615H52.8846C54.0692 3.84615 55 3 55 1.92308Z" fill="white"/>
<path fill-rule="evenodd" clip-rule="evenodd" d="M55 32.6926C55 31.6157 54.0692 30.7695 52.8846 30.7695H2.11539C0.930771 30.7695 0 31.6157 0 32.6926C0 33.7695 0.930771 34.6157 2.11539 34.6157H52.8846C54.0692 34.6157 55 33.7695 55 32.6926Z" fill="white"/>
<path fill-rule="evenodd" clip-rule="evenodd" d="M55 48.0769C55 47 54.0692 46.1538 52.8846 46.1538H19.0385C17.8539 46.1538 16.9231 47 16.9231 48.0769C16.9231 49.1538 17.8539 50 19.0385 50H52.8846C54.0692 50 55 49.1538 55 48.0769Z" fill="white"/>
</svg>
