<svg width="26" height="24" viewBox="0 0 26 24" fill="none" xmlns="http://www.w3.org/2000/svg">
<path d="M25.2946 5.39355L16.6341 14.0541C14.6235 16.0598 11.3687 16.0598 9.35814 14.0541L0.697164 5.39355C0.682696 5.55608 0.649902 5.70317 0.649902 5.86473V18.2107C0.653278 21.0503 2.95464 23.3516 5.79421 23.355H20.198C23.0376 23.3516 25.3389 21.0503 25.3423 18.2107V5.86473C25.3423 5.70317 25.3095 5.55608 25.295 5.39355H25.2946Z" fill="white"/>
<path d="M15.1791 12.5993L24.5765 3.20099C23.6505 1.66594 21.9906 0.725526 20.1975 0.720703H5.79424C4.00118 0.725526 2.34123 1.66594 1.41528 3.20099L10.8127 12.5993C12.0198 13.8016 13.972 13.8016 15.1791 12.5993Z" fill="white"/>
</svg>
