<svg width="23" height="21" viewBox="0 0 23 21" fill="none" xmlns="http://www.w3.org/2000/svg">
<path d="M2.88685 1.1415L3.68785 0.368977C3.93289 0.132721 4.26519 0 4.61168 0C4.95816 0 5.29046 0.132721 5.5355 0.368977L8.91459 3.62792C9.15956 3.86425 9.29717 4.18474 9.29717 4.5189C9.29717 4.85307 9.15956 5.17355 8.91459 5.40988L6.57171 7.66947C6.38163 7.85322 6.25627 8.08995 6.21335 8.34619C6.17044 8.60242 6.21215 8.86519 6.33258 9.09731C7.76043 11.8513 10.0758 14.0844 12.9313 15.4614C13.1722 15.5774 13.4447 15.6175 13.7104 15.5758C13.9761 15.5342 14.2215 15.4131 14.4118 15.2296L16.7547 12.9712C16.9998 12.735 17.3321 12.6023 17.6785 12.6023C18.025 12.6023 18.3573 12.735 18.6024 12.9712L21.9815 16.2302C22.2264 16.4665 22.364 16.787 22.364 17.1212C22.364 17.4553 22.2264 17.7758 21.9815 18.0121L21.1805 18.7847C19.8461 20.0719 18.075 20.8517 16.1924 20.9809C14.3098 21.1101 12.442 20.58 10.9321 19.4879L9.35364 18.3448C7.07535 16.697 5.05152 14.7451 3.34288 12.5478L2.15772 11.0255C1.02536 9.56922 0.475682 7.76789 0.609622 5.95223C0.743561 4.13657 1.55213 2.42845 2.88685 1.1415Z" fill="white"/>
</svg>
