<svg width="154" height="31" viewBox="0 0 154 31" fill="none" xmlns="http://www.w3.org/2000/svg">
<path d="M15 0.122559L18.3677 10.4873H29.2658L20.4491 16.8931L23.8168 27.2578L15 20.852L6.18322 27.2578L9.55093 16.8931L0.734152 10.4873H11.6323L15 0.122559Z" fill="#FFE140" fill-opacity="0.8"/>
<path d="M47 0.122559L50.3677 10.4873H61.2658L52.4491 16.8931L55.8168 27.2578L47 20.852L38.1832 27.2578L41.5509 16.8931L32.7342 10.4873H43.6323L47 0.122559Z" fill="#FFE140" fill-opacity="0.8"/>
<path d="M77 0.122559L80.3677 10.4873H91.2658L82.4491 16.8931L85.8168 27.2578L77 20.852L68.1832 27.2578L71.5509 16.8931L62.7342 10.4873H73.6323L77 0.122559Z" fill="#FFE140" fill-opacity="0.8"/>
<path d="M109 0.122559L112.368 10.4873H123.266L114.449 16.8931L117.817 27.2578L109 20.852L100.183 27.2578L103.551 16.8931L94.7342 10.4873H105.632L109 0.122559Z" fill="#FFE140" fill-opacity="0.8"/>
<path d="M139 0.122559L142.368 10.4873H153.266L144.449 16.8931L147.817 27.2578L139 20.852L130.183 27.2578L133.551 16.8931L124.734 10.4873H135.632L139 0.122559Z" fill="#FFE140" fill-opacity="0.8"/>
</svg>
